<svg xmlns="http://www.w3.org/2000/svg" xmlns:xlink="http://www.w3.org/1999/xlink" width="1920" zoomAndPan="magnify" viewBox="0 0 1440 809.999993" height="1080" preserveAspectRatio="xMidYMid meet" version="1.0"><defs><clipPath id="c5543b6e45"><path d="M 0 0.105469 L 1440 0.105469 L 1440 810 L 0 810 Z M 0 0.105469 " clip-rule="nonzero"/></clipPath><clipPath id="0e95d42f2c"><path d="M 1440 328.628906 L 1440 331.691406 C 1348.5625 277.554688 1244.597656 261.40625 1159.507812 288.660156 C 1100.433594 307.582031 1056.390625 346.308594 1035.488281 397.703125 C 1027.496094 417.855469 1026.84375 437.796875 1026.269531 455.394531 C 1025.070312 492.171875 1024.121094 521.21875 961.273438 530.550781 C 872.730469 543.707031 760.636719 589.539062 736.113281 675.421875 C 722.871094 721.773438 740.671875 768.175781 757.882812 813.050781 C 769.773438 844.058594 782.070312 876.117188 783.914062 907.777344 C 785.292969 931.441406 784.28125 949.824219 781.78125 966.03125 L 779.097656 966.03125 C 781.621094 949.878906 782.652344 931.5625 781.277344 907.929688 C 779.453125 876.683594 767.234375 844.816406 755.414062 813.996094 C 738.050781 768.71875 720.097656 721.902344 733.570312 674.695312 C 758.441406 587.605469 871.566406 541.207031 960.886719 527.941406 C 1021.550781 518.925781 1022.46875 490.851562 1023.628906 455.308594 C 1024.210938 437.496094 1024.871094 417.308594 1033.035156 396.714844 C 1054.242188 344.574219 1098.871094 305.308594 1158.703125 286.144531 C 1244.085938 258.796875 1348.246094 274.75 1440 328.628906 Z M 1057.785156 448.214844 C 1050.09375 465.566406 1048.511719 482.820312 1047.117188 498.046875 C 1044.210938 529.734375 1041.914062 554.761719 988.054688 563.695312 C 910.433594 576.566406 812.054688 618.292969 790.257812 693.523438 C 778.285156 734.863281 793.460938 775.90625 808.140625 815.589844 C 818.066406 842.429688 828.332031 870.1875 829.78125 897.390625 C 831.363281 926.832031 829.285156 947.242188 825.136719 966.03125 L 827.84375 966.03125 C 831.953125 947.210938 834 926.71875 832.421875 897.25 C 830.949219 869.644531 820.613281 841.699219 810.621094 814.671875 C 796.089844 775.386719 781.066406 734.769531 792.796875 694.257812 C 814.25 620.210938 911.621094 579.046875 988.488281 566.300781 C 1044.359375 557.035156 1046.855469 529.8125 1049.746094 498.285156 C 1051.125 483.261719 1052.6875 466.238281 1060.203125 449.285156 C 1079.773438 405.132812 1119.003906 372.351562 1170.664062 356.976562 C 1247.074219 334.234375 1340.585938 351.6875 1420.800781 403.667969 C 1427.449219 408.003906 1433.84375 412.742188 1440 417.824219 L 1440 414.441406 C 1434.28125 409.8125 1428.375 405.453125 1422.242188 401.449219 C 1341.382812 349.054688 1247.050781 331.480469 1169.910156 354.441406 C 1117.496094 370.039062 1077.679688 403.34375 1057.785156 448.214844 Z M 1182.535156 422.503906 C 1137.054688 434.433594 1101.542969 461.851562 1082.546875 499.699219 C 1075.441406 513.855469 1073 528.15625 1070.847656 540.773438 C 1066.101562 568.585938 1062.351562 590.554688 1015.21875 599.453125 C 946.136719 612.492188 865.65625 649 846.945312 712.351562 C 836.480469 747.851562 848.871094 783.101562 860.859375 817.191406 C 868.898438 840.054688 877.207031 863.691406 878.285156 886.847656 C 879.988281 922.589844 875.636719 942.914062 868.921875 966.03125 L 871.671875 966.03125 C 878.335938 942.96875 882.625 922.484375 880.925781 886.726562 C 879.832031 863.179688 871.453125 839.355469 863.355469 816.316406 C 851.507812 782.617188 839.253906 747.777344 849.480469 713.097656 C 867.851562 650.890625 947.394531 614.945312 1015.710938 602.046875 C 1064.648438 592.8125 1068.730469 568.902344 1073.453125 541.21875 C 1075.675781 528.175781 1077.980469 514.691406 1084.90625 500.886719 C 1103.558594 463.722656 1138.46875 436.796875 1183.207031 425.0625 C 1248.261719 408 1323.800781 423.953125 1390.449219 468.835938 C 1409.386719 481.589844 1425.960938 498.03125 1440 517.511719 L 1440 513.109375 C 1426.238281 494.628906 1410.175781 478.933594 1391.925781 466.644531 C 1324.644531 421.335938 1248.328125 405.25 1182.535156 422.503906 Z M 1430.757812 966.03125 C 1433.945312 960.53125 1437.023438 954.960938 1440 949.332031 L 1440 943.648438 C 1436.097656 951.222656 1431.996094 958.6875 1427.710938 966.03125 Z M 1374.539062 966.03125 L 1377.773438 966.03125 C 1408.867188 920.496094 1429.921875 870.511719 1439.558594 818.617188 C 1439.714844 817.785156 1439.847656 816.960938 1440 816.132812 L 1440 799.832031 C 1439.105469 805.902344 1438.117188 811.996094 1436.960938 818.132812 C 1427.285156 870.238281 1405.992188 920.394531 1374.539062 966.03125 Z M 1194.734375 490.953125 C 1156.425781 499.160156 1125.378906 520.546875 1107.320312 551.167969 C 1100.769531 562.273438 1097.683594 573.199219 1094.707031 583.765625 C 1088.265625 606.59375 1082.699219 626.3125 1042.375 635.210938 C 1014.808594 641.292969 923.335938 666.195312 903.636719 731.175781 C 894.664062 760.820312 904.277344 790.300781 913.570312 818.816406 C 919.722656 837.6875 926.082031 857.199219 926.792969 876.304688 C 928.117188 910.554688 923.140625 927.972656 916.25 952.082031 C 915.007812 956.425781 913.691406 961.054688 912.335938 966.03125 L 915.078125 966.03125 C 916.359375 961.332031 917.613281 956.9375 918.792969 952.808594 C 925.75 928.457031 930.777344 910.886719 929.433594 876.203125 C 928.710938 856.730469 922.292969 837.039062 916.082031 817.996094 C 906.917969 789.875 897.441406 760.785156 906.164062 731.941406 C 925.449219 668.339844 1015.734375 643.796875 1042.945312 637.792969 C 1084.816406 628.550781 1090.578125 608.128906 1097.25 584.480469 C 1100.183594 574.078125 1103.21875 563.320312 1109.597656 552.507812 C 1127.277344 522.53125 1157.710938 501.589844 1195.289062 493.535156 C 1247.773438 482.289062 1307.84375 497.039062 1360.089844 534 C 1401.972656 563.625 1429.570312 615.527344 1440 678.84375 L 1440 664.515625 C 1427.863281 606.8125 1400.949219 559.664062 1361.617188 531.84375 C 1308.765625 494.457031 1247.941406 479.550781 1194.734375 490.953125 Z M 1331.324219 597.054688 C 1292.046875 567.117188 1247.722656 553.886719 1206.515625 559.800781 C 1175.589844 564.238281 1149.171875 579.4375 1132.125 602.601562 C 1126.027344 610.886719 1122.261719 619.199219 1118.617188 627.234375 C 1110.15625 645.90625 1102.847656 662.035156 1069.511719 670.976562 C 1041.828125 678.402344 975.777344 700.964844 960.328125 749.996094 C 952.851562 773.804688 959.667969 797.539062 966.261719 820.484375 C 970.535156 835.347656 974.953125 850.714844 975.296875 865.753906 C 975.984375 892.46875 972.085938 907.277344 967.152344 926.023438 C 965.070312 933.941406 962.707031 942.917969 960.457031 953.753906 C 959.613281 957.816406 959.167969 961.921875 959.066406 966.03125 L 961.714844 966.03125 C 961.816406 962.101562 962.238281 958.171875 963.046875 954.289062 C 965.28125 943.523438 967.632812 934.582031 969.707031 926.691406 C 974.695312 907.746094 978.621094 892.816406 977.9375 865.6875 C 977.585938 850.316406 973.121094 834.777344 968.804688 819.753906 C 962.316406 797.1875 955.609375 773.84375 962.847656 750.789062 C 977.902344 703.007812 1042.933594 680.84375 1070.195312 673.53125 C 1104.738281 664.265625 1112.648438 646.808594 1121.023438 628.328125 C 1124.613281 620.414062 1128.320312 612.230469 1134.253906 604.164062 C 1150.875 581.582031 1176.671875 566.753906 1206.890625 562.414062 C 1247.390625 556.605469 1291.011719 569.652344 1329.71875 599.15625 C 1383.160156 639.886719 1406.195312 728.453125 1388.421875 824.796875 C 1379.492188 873.195312 1355.621094 920.597656 1317.410156 966.03125 L 1320.835938 966.03125 C 1358.511719 920.757812 1382.117188 873.527344 1391.019531 825.277344 C 1395.03125 803.546875 1396.976562 782.199219 1396.976562 761.691406 C 1396.976562 690.363281 1373.4375 629.152344 1331.324219 597.054688 Z M 1270.453125 953.960938 C 1300.5 921.585938 1333.324219 882.78125 1342.484375 831.9375 C 1345.339844 816.078125 1346.726562 800.425781 1346.726562 785.292969 C 1346.722656 733.3125 1330.359375 687.636719 1301.050781 662.285156 C 1247.957031 616.359375 1188.394531 623.34375 1157 653.984375 C 1150.949219 659.890625 1146.386719 665.945312 1141.976562 671.804688 C 1131.898438 685.1875 1122.382812 697.824219 1096.613281 706.757812 C 1052.46875 722.058594 1025.691406 742.933594 1017.019531 768.804688 C 1011.019531 786.796875 1015.035156 804.78125 1018.914062 822.171875 C 1021.316406 832.945312 1023.800781 844.078125 1023.800781 854.964844 C 1023.800781 855.039062 1023.800781 855.109375 1023.800781 855.179688 C 1023.742188 874.238281 1021.105469 885.988281 1018.046875 899.597656 C 1016.523438 906.371094 1014.953125 913.378906 1013.464844 922.089844 C 1010.898438 937.113281 1014.554688 952.722656 1022.890625 966.03125 L 1026.066406 966.03125 C 1019.183594 955.625 1015.300781 943.671875 1015.300781 931.699219 C 1015.300781 928.636719 1015.550781 925.570312 1016.070312 922.53125 C 1017.546875 913.886719 1019.109375 906.917969 1020.625 900.175781 C 1023.714844 886.417969 1026.386719 874.535156 1026.445312 855.191406 C 1026.445312 855.117188 1026.445312 855.042969 1026.445312 854.964844 C 1026.445312 843.789062 1023.929688 832.507812 1021.496094 821.597656 C 1017.695312 804.558594 1013.757812 786.9375 1019.527344 769.644531 C 1027.804688 744.945312 1054.757812 724.0625 1097.476562 709.253906 C 1124.007812 700.058594 1133.761719 687.105469 1144.085938 673.394531 C 1148.4375 667.613281 1152.9375 661.640625 1158.84375 655.871094 C 1189.375 626.078125 1247.429688 619.402344 1299.320312 664.285156 C 1336.46875 696.417969 1352.390625 762.035156 1339.882812 831.46875 C 1330.851562 881.609375 1298.308594 920.058594 1268.511719 952.167969 C 1266.6875 954.144531 1264.9375 956.066406 1263.238281 957.941406 C 1260.660156 960.777344 1258.210938 963.472656 1255.78125 966.03125 L 1259.40625 966.03125 C 1261.308594 963.988281 1263.222656 961.886719 1265.195312 959.714844 C 1266.890625 957.851562 1268.632812 955.929688 1270.453125 953.960938 Z M 1203.625 948.292969 C 1179.117188 954.238281 1119.058594 965.261719 1090.425781 939.34375 C 1074.03125 928.289062 1064.644531 909.078125 1066.46875 890.46875 C 1067.195312 883.109375 1068.203125 877.015625 1069.179688 871.121094 C 1070.535156 862.925781 1071.816406 855.1875 1072.308594 844.589844 C 1072.621094 837.992188 1071.988281 831.238281 1071.378906 824.707031 C 1070.25 812.570312 1069.082031 800.023438 1073.722656 787.597656 C 1082.015625 765.542969 1106.183594 751.339844 1123.644531 742.574219 C 1135.769531 736.492188 1144.542969 729.457031 1152.28125 723.253906 C 1161.386719 715.949219 1169.988281 709.054688 1182.027344 705.28125 C 1205.296875 687.09375 1243.425781 696.648438 1270.839844 727.589844 C 1289.8125 749 1296.386719 780.691406 1296.386719 809.015625 C 1296.386719 819.578125 1295.476562 829.675781 1293.945312 838.59375 C 1289.140625 866.675781 1271.480469 885.554688 1252.78125 905.542969 C 1248.71875 909.886719 1244.515625 914.378906 1240.476562 918.953125 C 1237.753906 922.046875 1235.574219 924.914062 1233.46875 927.691406 C 1226.515625 936.84375 1221.027344 944.070312 1203.625 948.292969 Z M 1203 945.722656 C 1219.492188 941.722656 1224.472656 935.167969 1231.363281 926.089844 C 1233.5 923.28125 1235.710938 920.371094 1238.492188 917.203125 C 1242.5625 912.601562 1246.777344 908.09375 1250.851562 903.738281 C 1269.269531 884.046875 1286.667969 865.449219 1291.34375 838.148438 C 1296.859375 805.890625 1294.289062 758.042969 1268.863281 729.34375 C 1242.316406 699.382812 1205.605469 689.996094 1183.472656 707.511719 L 1183.042969 707.734375 C 1171.363281 711.339844 1163.285156 717.816406 1153.933594 725.3125 C 1146.09375 731.601562 1137.203125 738.730469 1124.832031 744.9375 C 1107.769531 753.503906 1084.160156 767.339844 1076.195312 788.523438 C 1071.765625 800.386719 1072.90625 812.625 1074.011719 824.464844 C 1074.628906 831.082031 1075.257812 837.929688 1074.949219 844.714844 C 1074.449219 855.460938 1073.15625 863.277344 1071.785156 871.554688 C 1070.816406 877.40625 1069.816406 883.457031 1069.097656 890.726562 C 1068.953125 892.195312 1068.882812 893.664062 1068.882812 895.132812 C 1068.882812 911.417969 1077.628906 927.5625 1091.980469 937.203125 L 1092.132812 937.320312 C 1111.324219 954.769531 1152.769531 957.910156 1203 945.722656 Z M 1193.058594 901.691406 C 1157.46875 908.261719 1139.566406 897.398438 1130.816406 887.128906 C 1120.042969 874.480469 1116.5 855.566406 1120.839844 833.859375 C 1124.964844 813.214844 1135.78125 793.0625 1150.503906 778.566406 C 1162.183594 767.070312 1181.558594 753.945312 1207.523438 756.703125 C 1226.601562 758.734375 1236.140625 777.707031 1240.785156 793.273438 C 1244.675781 806.324219 1246.226562 820.414062 1246.226562 831.941406 C 1246.226562 836.949219 1245.933594 841.472656 1245.414062 845.214844 C 1243.707031 857.507812 1235.113281 863.710938 1226.015625 870.273438 C 1220.554688 874.214844 1214.910156 878.289062 1210.527344 883.902344 C 1208.425781 886.601562 1207.660156 889.054688 1206.988281 891.222656 C 1205.59375 895.71875 1204.386719 899.597656 1193.058594 901.691406 Z M 1192.578125 899.09375 C 1202.335938 897.292969 1203.136719 894.710938 1204.464844 890.4375 C 1205.167969 888.171875 1206.042969 885.355469 1208.445312 882.277344 C 1213.058594 876.367188 1218.859375 872.179688 1224.472656 868.128906 C 1233.097656 861.90625 1241.246094 856.027344 1242.796875 844.855469 C 1244.421875 833.15625 1243.691406 812.261719 1238.25 794.027344 C 1233.835938 779.234375 1224.875 761.207031 1207.246094 759.332031 C 1182.304688 756.683594 1163.632812 769.355469 1152.359375 780.453125 C 1138 794.585938 1127.457031 814.238281 1123.429688 834.378906 C 1122.257812 840.253906 1121.675781 845.910156 1121.675781 851.277344 C 1121.675781 864.988281 1125.46875 876.777344 1132.828125 885.414062 C 1144.730469 899.382812 1165.390625 904.109375 1192.578125 899.09375 Z M 828.929688 189.777344 C 934.296875 241.152344 972.632812 280.496094 993.230469 301.636719 C 1016.863281 325.890625 1018.183594 325.75 1063.957031 293.972656 C 1123.917969 252.347656 1173.523438 244.253906 1226.039062 235.691406 C 1249.226562 231.910156 1273.203125 228 1299.210938 221.117188 C 1353.472656 206.75 1402.023438 182.1875 1440 150.347656 L 1440 146.460938 C 1399.445312 181.375 1349.242188 205.136719 1298.535156 218.558594 C 1272.652344 225.410156 1248.738281 229.308594 1225.613281 233.085938 C 1172.792969 241.695312 1122.902344 249.832031 1062.449219 291.800781 C 1017.644531 322.90625 1017.644531 322.90625 995.121094 299.789062 C 974.414062 278.539062 935.871094 238.980469 830.089844 187.402344 C 777.847656 161.933594 756.875 146.660156 756.875 106.753906 C 756.875 82.679688 764.515625 49.625 777.53125 -0.0195312 L 774.800781 -0.0195312 C 740.679688 130.34375 743.574219 148.167969 828.929688 189.777344 Z M 881.992188 148.308594 C 954.304688 187.214844 986.476562 216.5 1005.695312 233.996094 C 1031.480469 257.46875 1033.585938 259.386719 1075.246094 232.707031 C 1122.273438 202.589844 1161.585938 195.1875 1203.207031 187.347656 C 1223.453125 183.535156 1244.386719 179.59375 1266.917969 172.878906 C 1325.621094 155.371094 1375.300781 123.5625 1406.808594 83.3125 C 1421.996094 63.910156 1433.042969 42.8125 1440 20.144531 L 1440 11.910156 C 1412.921875 117.191406 1305.839844 158.511719 1266.164062 170.34375 C 1243.761719 177.023438 1222.898438 180.949219 1202.71875 184.753906 C 1160.835938 192.636719 1121.277344 200.085938 1073.820312 230.480469 C 1033.867188 256.070312 1032.375 254.714844 1007.472656 232.042969 C 988.164062 214.464844 955.84375 185.042969 883.246094 145.980469 C 816.101562 109.855469 814.480469 88.738281 843.015625 -0.0195312 L 840.242188 -0.0195312 C 812.125 87.734375 813.371094 111.386719 881.992188 148.308594 Z M 935.039062 106.828125 C 975.976562 131.890625 999.855469 151.445312 1015.65625 164.382812 C 1044.957031 188.375 1049.457031 192.0625 1086.503906 171.457031 C 1119.992188 152.832031 1148.570312 146.421875 1178.824219 139.632812 C 1196.664062 135.632812 1215.109375 131.492188 1234.652344 124.625 C 1280.074219 108.660156 1317.472656 82.082031 1339.957031 49.796875 C 1350.757812 34.285156 1358.242188 17.648438 1362.425781 -0.0195312 L 1359.972656 -0.0195312 C 1341.621094 77.265625 1263.328125 111.742188 1233.773438 122.132812 C 1214.378906 128.949219 1196.011719 133.070312 1178.246094 137.054688 C 1147.800781 143.882812 1119.042969 150.335938 1085.21875 169.148438 C 1049.742188 188.878906 1046.054688 185.859375 1017.332031 162.339844 C 1001.472656 149.355469 977.511719 129.734375 936.421875 104.570312 C 887.535156 74.636719 884.84375 50.363281 904.402344 -0.0195312 L 901.542969 -0.0195312 C 881.726562 51.191406 884.660156 75.972656 935.039062 106.828125 Z M 988.050781 65.3125 C 1000.117188 74.25 1009.847656 81.886719 1018.433594 88.625 C 1054.015625 116.546875 1063.582031 124.054688 1097.683594 110.234375 C 1115.480469 103.027344 1132.199219 98.539062 1148.367188 94.195312 C 1166.734375 89.265625 1184.082031 84.605469 1202.425781 76.355469 C 1235.214844 61.601562 1259.757812 40.789062 1273.390625 16.167969 C 1276.320312 10.878906 1278.703125 5.480469 1280.574219 -0.0195312 L 1277.757812 -0.0195312 C 1275.984375 5.039062 1273.777344 10.015625 1271.082031 14.886719 C 1257.722656 39.003906 1233.609375 59.425781 1201.339844 73.941406 C 1183.191406 82.109375 1165.941406 86.742188 1147.679688 91.644531 C 1131.433594 96.007812 1114.636719 100.515625 1096.691406 107.785156 C 1064.007812 121.027344 1055.570312 114.40625 1020.0625 86.542969 C 1011.464844 79.796875 1001.71875 72.148438 989.628906 63.191406 C 961.878906 42.628906 954.921875 23.03125 960.871094 -0.0195312 L 957.929688 -0.0195312 C 951.875 23.683594 959.167969 43.910156 988.050781 65.3125 Z M 1170.308594 28.003906 C 1182.515625 19.484375 1192.210938 9.90625 1198.9375 -0.0195312 L 1195.726562 -0.0195312 C 1189.234375 9.101562 1180.136719 17.921875 1168.796875 25.835938 C 1127.09375 54.945312 1068.300781 53.132812 1042.976562 21.96875 C 1036.992188 14.605469 1032.480469 7.265625 1029.386719 -0.0195312 L 1026.613281 -0.0195312 C 1029.8125 7.894531 1034.578125 15.824219 1040.925781 23.636719 C 1067.074219 55.820312 1127.535156 57.859375 1170.308594 28.003906 Z M 514.269531 248.484375 C 547.605469 256.734375 579.09375 264.527344 597.582031 259.53125 C 619.082031 253.71875 633.21875 243.453125 646.890625 233.53125 C 664.0625 221.066406 680.285156 209.292969 708.628906 208.4375 C 773.847656 206.476562 868.789062 262.039062 930.28125 310.21875 C 976.96875 346.800781 1001.296875 382.433594 1001.296875 413.957031 C 1001.296875 417.199219 1001.039062 420.394531 1000.519531 423.542969 C 995.039062 456.992188 961.234375 484.914062 900.054688 506.535156 C 754.09375 558.109375 724.117188 615.546875 708.011719 646.398438 C 701.703125 658.488281 697.144531 667.21875 688.429688 669.890625 C 677.785156 673.152344 661.375 667.488281 625.730469 648.253906 C 442.351562 549.296875 420.355469 529.035156 443.535156 398.980469 C 449.425781 365.898438 433.320312 331 420.375 302.96875 C 406.703125 273.359375 395.90625 249.980469 414.804688 239.953125 C 435.472656 228.988281 475.53125 238.898438 514.269531 248.484375 Z M 513.636719 251.050781 C 475.378906 241.582031 435.820312 231.796875 416.042969 242.285156 C 399.347656 251.140625 409.6875 273.523438 422.773438 301.859375 C 435.875 330.230469 452.175781 365.535156 446.136719 399.445312 C 423.28125 527.703125 445.089844 547.769531 626.984375 645.925781 C 661.472656 664.539062 677.914062 670.347656 687.652344 667.363281 C 695.3125 665.015625 699.433594 657.125 705.667969 645.175781 C 721.941406 614 752.234375 555.964844 899.171875 504.042969 C 959.375 482.769531 992.597656 455.542969 997.914062 423.117188 C 1003.289062 390.308594 979.332031 352.011719 928.648438 312.296875 C 867.507812 264.394531 773.21875 209.140625 708.707031 211.082031 C 681.179688 211.910156 665.277344 223.453125 648.445312 235.671875 C 634.578125 245.738281 620.238281 256.144531 598.269531 262.082031 C 579.125 267.257812 547.3125 259.386719 513.636719 251.050781 Z M 650.683594 269.53125 C 664.285156 259.96875 677.128906 250.9375 699.199219 250.234375 C 752.484375 248.445312 826.335938 291.671875 873.386719 329.238281 C 908.585938 357.34375 926.914062 385.132812 926.914062 410.164062 C 926.914062 412.882812 926.695312 415.570312 926.261719 418.222656 C 921.820312 445.332031 895.246094 467.921875 847.285156 485.371094 C 738.421875 524.972656 714.285156 568.308594 701.3125 591.59375 C 688.558594 614.496094 683.253906 619.484375 635.644531 595.164062 L 624.253906 589.355469 C 579.898438 566.738281 547.851562 550.394531 525.316406 533.617188 C 487.847656 505.730469 478.101562 479.386719 485.203125 425.195312 C 486.082031 418.445312 487.25 411.089844 488.769531 402.707031 C 493.304688 377.582031 482.679688 351.945312 473.308594 329.332031 C 463.242188 305.03125 455.296875 285.847656 470.996094 277.136719 C 487.179688 268.15625 518.222656 275.183594 548.242188 281.976562 C 573.828125 287.765625 597.996094 293.238281 612.53125 289.261719 C 628.984375 284.789062 640.015625 277.03125 650.683594 269.53125 Z M 699.285156 252.875 C 678.003906 253.554688 665.472656 262.363281 652.203125 271.691406 C 641.347656 279.324219 630.125 287.21875 613.226562 291.8125 C 598.058594 295.960938 573.578125 290.421875 547.660156 284.554688 C 518.121094 277.867188 487.582031 270.957031 472.277344 279.449219 C 458.632812 287.015625 466.1875 305.246094 475.75 328.320312 C 484.789062 350.136719 496.039062 377.289062 491.371094 403.175781 C 489.859375 411.519531 488.699219 418.832031 487.824219 425.539062 C 486.445312 436.070312 485.710938 445.53125 485.710938 454.136719 C 485.710938 488.855469 497.621094 509.710938 526.890625 531.496094 C 549.25 548.140625 581.214844 564.4375 625.457031 587 L 636.847656 592.8125 C 684.152344 616.972656 687.300781 611.324219 699.003906 590.308594 C 712.140625 566.722656 736.59375 522.824219 846.378906 482.886719 C 893.378906 465.789062 919.378906 443.886719 923.652344 417.796875 C 927.945312 391.71875 909.972656 361.828125 871.734375 331.304688 C 821.347656 291.074219 748.484375 251.222656 699.285156 252.875 Z M 689.769531 292.027344 C 728.289062 290.589844 782.464844 320.171875 816.5 348.265625 C 840.238281 367.863281 852.585938 387.757812 852.585938 406.222656 C 852.585938 408.425781 852.410156 410.609375 852.054688 412.769531 C 848.652344 433.578125 829.296875 450.882812 794.523438 464.203125 C 722.628906 491.742188 705.109375 519.941406 694.644531 536.789062 C 684.214844 553.578125 679.6875 557.722656 645.582031 542.085938 C 636.792969 538.054688 628.523438 534.367188 620.765625 530.90625 C 596.671875 520.160156 577.644531 511.671875 563.085938 501.949219 C 534.710938 482.992188 526.410156 462.347656 531.371094 423.042969 C 532.003906 417.96875 532.867188 412.535156 534.003906 406.425781 C 537.171875 389.257812 531.234375 371.453125 526 355.742188 C 519.925781 337.511719 514.679688 321.78125 527.171875 314.332031 C 538.886719 307.347656 560.921875 311.472656 582.230469 315.460938 C 599.277344 318.652344 616.898438 321.949219 627.476562 318.996094 C 638.890625 315.855469 646.8125 310.609375 654.476562 305.535156 C 664.507812 298.894531 673.980469 292.621094 689.769531 292.027344 Z M 689.867188 294.671875 C 674.820312 295.234375 665.648438 301.308594 655.933594 307.738281 C 648.097656 312.929688 639.996094 318.292969 628.183594 321.542969 C 617.015625 324.660156 599.882812 321.453125 581.746094 318.058594 C 560.917969 314.160156 539.382812 310.128906 528.523438 316.605469 C 517.855469 322.960938 522.558594 337.0625 528.507812 354.90625 C 533.84375 370.917969 539.894531 389.054688 536.601562 406.910156 C 535.472656 412.964844 534.621094 418.347656 533.996094 423.371094 C 533.101562 430.453125 532.632812 436.890625 532.632812 442.785156 C 532.632812 469.011719 541.925781 484.632812 564.554688 499.75 C 578.925781 509.347656 597.863281 517.796875 621.84375 528.492188 C 629.609375 531.957031 637.886719 535.648438 646.683594 539.683594 C 680.191406 555.046875 683.019531 550.488281 692.402344 535.390625 C 703.042969 518.261719 720.851562 489.59375 793.578125 461.734375 C 827.410156 448.773438 846.207031 432.15625 849.449219 412.34375 C 852.609375 393.046875 840.625 371.609375 814.816406 350.304688 C 781.15625 322.519531 727.699219 293.257812 689.867188 294.671875 Z M 680.332031 333.828125 C 707.503906 332.527344 740.488281 350.273438 759.632812 367.308594 C 771.875 378.210938 778.402344 390.355469 778.402344 402.003906 C 778.402344 403.640625 778.273438 405.269531 778.011719 406.886719 C 775.683594 421.3125 763.160156 433.808594 741.792969 443.019531 C 706.496094 458.242188 695.414062 472.519531 688.082031 481.964844 C 680.488281 491.746094 677.023438 496.210938 655.601562 489.03125 C 648.226562 486.5625 641.351562 484.519531 634.699219 482.539062 C 621.632812 478.652344 610.351562 475.296875 600.921875 470.304688 C 581.457031 459.996094 574.683594 445.695312 577.542969 420.898438 C 577.914062 417.585938 578.484375 413.964844 579.242188 410.144531 C 581.023438 400.933594 579.417969 391.09375 578 382.40625 C 575.941406 369.804688 574.003906 357.902344 583.3125 351.550781 C 590.613281 346.566406 603.742188 347.742188 616.433594 348.878906 C 625.976562 349.730469 635.84375 350.617188 642.417969 348.730469 C 648.730469 346.917969 653.492188 344.191406 658.09375 341.550781 C 664.613281 337.8125 670.773438 334.285156 680.332031 333.828125 Z M 680.460938 336.46875 C 671.535156 336.894531 665.644531 340.269531 659.410156 343.84375 C 654.667969 346.558594 649.769531 349.371094 643.148438 351.269531 C 636.097656 353.292969 626.429688 352.425781 616.199219 351.511719 C 603.96875 350.417969 591.320312 349.28125 584.804688 353.734375 C 576.878906 359.140625 578.605469 369.726562 580.609375 381.980469 C 582.0625 390.882812 583.707031 400.980469 581.835938 410.648438 C 581.09375 414.40625 580.53125 417.953125 580.167969 421.199219 C 579.753906 424.765625 579.542969 428.09375 579.542969 431.207031 C 579.542969 448.878906 586.363281 459.605469 602.160156 467.96875 C 611.355469 472.839844 622.523438 476.160156 635.453125 480.007812 C 642.125 481.992188 649.023438 484.039062 656.4375 486.527344 C 676.085938 493.109375 678.582031 489.894531 685.992188 480.34375 C 693.492188 470.683594 704.824219 456.085938 740.746094 440.59375 C 761.242188 431.757812 773.226562 419.953125 775.402344 406.464844 C 777.371094 394.296875 771.144531 381.09375 757.875 369.285156 C 738.519531 352.0625 705.714844 335.261719 680.460938 336.46875 Z M 670.847656 375.628906 C 684.796875 374.328125 696.476562 378.289062 702.890625 386.5 C 704.550781 388.625 705.351562 391.246094 705.351562 394.183594 C 705.351562 402.0625 699.621094 412.261719 689.378906 421.625 C 682.527344 427.882812 674.574219 432.824219 666.371094 435.914062 C 656.917969 439.476562 647.710938 440.417969 639.003906 438.722656 C 628.523438 436.683594 622.929688 429.414062 623.707031 418.796875 C 624.390625 409.238281 630.230469 398.054688 639.332031 388.882812 C 646.1875 381.976562 658.558594 376.773438 670.847656 375.628906 Z M 671.09375 378.261719 C 659.386719 379.351562 647.65625 384.25 641.207031 390.746094 C 632.539062 399.480469 626.980469 410.039062 626.34375 418.984375 C 626.300781 419.5625 626.28125 420.128906 626.28125 420.683594 C 626.28125 429.003906 630.925781 434.457031 639.511719 436.128906 C 647.726562 437.730469 656.449219 436.828125 665.441406 433.441406 C 673.328125 430.46875 680.992188 425.707031 687.597656 419.671875 C 700.1875 408.164062 705.867188 394.59375 700.808594 388.125 C 694.960938 380.640625 684.128906 377.046875 671.09375 378.261719 Z M 473.058594 614.34375 C 372.566406 609.53125 332.101562 644.027344 269.296875 705.355469 C 262.441406 711.210938 255.710938 718.765625 248.585938 726.765625 C 236.386719 740.460938 223.773438 754.625 209.453125 761.296875 C 171.933594 778.789062 129.976562 766.492188 92.960938 755.644531 C 84.414062 753.136719 76.339844 750.773438 68.4375 748.78125 C 46.492188 743.253906 23.238281 741.808594 0 744.070312 L 0 746.714844 C 23.019531 744.449219 46.054688 745.867188 67.792969 751.34375 C 75.644531 753.324219 83.691406 755.679688 92.214844 758.179688 C 129.683594 769.160156 172.148438 781.605469 210.570312 763.695312 C 225.382812 756.789062 238.183594 742.417969 250.558594 728.523438 C 257.621094 720.59375 264.296875 713.105469 271.078125 707.304688 C 333.421875 646.433594 373.535156 612.222656 472.898438 616.984375 C 595.746094 625.980469 716.554688 775.183594 734.949219 867.582031 C 743.25 903.269531 748.191406 936.03125 749.777344 966.03125 L 752.371094 966.03125 C 750.789062 935.828125 745.878906 902.910156 737.53125 867.023438 C 718.992188 773.890625 597.085938 623.429688 473.058594 614.34375 Z M 477.980469 683.109375 C 420.457031 675.25 390.074219 675.941406 350.800781 700.578125 C 339.09375 707.925781 327.871094 716.84375 315.992188 726.28125 C 310.738281 730.460938 305.304688 734.777344 299.636719 739.113281 C 293.589844 743.742188 287.539062 749.367188 281.132812 755.324219 C 269.191406 766.425781 256.847656 777.910156 243.398438 783.835938 C 209.144531 798.972656 172.371094 793.214844 139.925781 788.132812 C 133.121094 787.066406 126.691406 786.0625 120.453125 785.269531 C 79.929688 780.128906 36.09375 790.363281 0 812.082031 L 0 815.15625 C 35.839844 793.167969 79.664062 782.757812 120.121094 787.890625 C 126.324219 788.679688 132.730469 789.683594 139.519531 790.742188 C 172.320312 795.882812 209.503906 801.707031 244.464844 786.253906 C 258.320312 780.148438 270.832031 768.511719 282.933594 757.261719 C 289.289062 751.347656 295.296875 745.761719 301.242188 741.214844 C 306.929688 736.863281 312.375 732.535156 317.640625 728.351562 C 329.457031 718.957031 340.621094 710.085938 352.203125 702.820312 C 390.78125 678.621094 420.769531 677.960938 477.621094 685.726562 C 575.550781 699.105469 659.777344 821.886719 672.507812 897.230469 C 676.714844 922.105469 679.167969 944.964844 679.890625 966.03125 L 682.523438 966.03125 C 681.804688 944.816406 679.34375 921.816406 675.117188 896.789062 C 662.253906 820.683594 577.066406 696.644531 477.980469 683.109375 Z M 482.933594 751.890625 C 472.5625 749.253906 463.53125 746.484375 455.5625 744.042969 C 426.578125 735.15625 409.082031 729.792969 377.886719 744.894531 C 366.640625 750.339844 355.742188 757.066406 344.203125 764.1875 C 339.601562 767.03125 334.902344 769.933594 330.046875 772.832031 C 323.804688 776.566406 317.605469 781.027344 311.042969 785.75 C 300.21875 793.535156 289.027344 801.585938 277.347656 806.371094 C 247.417969 818.695312 216.988281 819.886719 190.140625 820.941406 C 183.914062 821.183594 178.035156 821.414062 172.378906 821.777344 C 128.652344 824.5625 85.527344 846.507812 59.824219 879.046875 C 40.441406 903.589844 32.824219 931.84375 37.792969 960.8125 L 38.121094 962.742188 C 38.304688 963.800781 38.492188 964.90625 38.6875 966.03125 L 41.371094 966.03125 C 41.148438 964.746094 40.929688 963.492188 40.726562 962.292969 L 40.394531 960.363281 C 39.4375 954.769531 38.957031 949.203125 38.957031 943.683594 C 38.957031 921.382812 46.746094 899.871094 61.898438 880.683594 C 87.148438 848.71875 129.546875 827.15625 172.546875 824.414062 C 178.171875 824.054688 184.035156 823.824219 190.242188 823.582031 C 217.3125 822.519531 247.992188 821.316406 278.351562 808.8125 C 290.320312 803.914062 301.636719 795.769531 312.585938 787.894531 C 319.101562 783.203125 325.257812 778.773438 331.402344 775.101562 C 336.269531 772.195312 340.980469 769.285156 345.59375 766.441406 C 357.070312 759.351562 367.914062 752.660156 379.035156 747.273438 C 409.300781 732.625 426.421875 737.875 454.789062 746.570312 C 462.785156 749.023438 471.847656 751.800781 482.28125 754.449219 C 555.84375 773.136719 604.539062 868.257812 610.074219 926.867188 C 611.390625 940.800781 612.058594 953.8125 612.09375 966.03125 L 614.738281 966.03125 C 614.703125 953.730469 614.03125 940.628906 612.707031 926.617188 C 607.097656 867.253906 557.660156 770.871094 482.933594 751.890625 Z M 550.453125 948.875 C 550.453125 908.722656 537.527344 843.597656 487.96875 820.722656 C 475.691406 815.058594 466.9375 808.023438 459.214844 801.816406 C 444.148438 789.710938 432.246094 780.148438 405 789.214844 C 393.113281 793.175781 381.289062 798.03125 368.769531 803.167969 C 366.042969 804.289062 363.292969 805.417969 360.511719 806.550781 C 353.253906 809.503906 345.789062 813.148438 338.574219 816.671875 C 329.675781 821.011719 320.472656 825.503906 311.308594 828.898438 C 295.398438 834.832031 280.273438 839.621094 265.648438 844.25 C 250.785156 848.953125 236.746094 853.394531 224.148438 858.382812 C 180.589844 875.621094 142.191406 917.648438 149.726562 966.03125 L 152.398438 966.03125 C 151.734375 961.910156 151.398438 957.832031 151.398438 953.816406 C 151.398438 911.855469 186.167969 876.253906 225.121094 860.839844 C 237.632812 855.886719 251.628906 851.457031 266.445312 846.769531 C 281.101562 842.128906 296.261719 837.332031 312.230469 831.378906 C 321.515625 827.933594 330.773438 823.414062 339.730469 819.046875 C 346.910156 815.542969 354.332031 811.917969 361.511719 808.996094 C 364.292969 807.863281 367.042969 806.734375 369.773438 805.617188 C 382.246094 800.492188 394.03125 795.652344 405.835938 791.722656 C 431.714844 783.109375 442.554688 791.820312 457.558594 803.875 C 465.402344 810.179688 474.289062 817.320312 486.859375 823.125 C 538.441406 846.933594 549.328125 918.144531 547.652344 956.410156 C 547.511719 959.585938 547.324219 962.796875 547.097656 966.03125 L 549.746094 966.03125 C 549.96875 962.839844 550.152344 959.667969 550.292969 956.53125 C 550.398438 954.101562 550.453125 951.542969 550.453125 948.875 Z M 493.132812 889.71875 L 493.132812 889.722656 C 484.714844 881.695312 480.027344 871.648438 475.492188 861.9375 C 467.425781 844.65625 459.804688 828.335938 432.175781 833.546875 L 431.160156 833.703125 C 376.53125 842.011719 308.539062 852.355469 275.757812 895.324219 C 260.335938 915.539062 255.242188 941.289062 259.410156 966.03125 L 262.058594 966.03125 C 261.109375 960.550781 260.621094 955.019531 260.621094 949.511719 C 260.621094 930.71875 266.210938 912.195312 277.859375 896.929688 C 309.992188 854.804688 377.398438 844.554688 431.558594 836.316406 L 432.621094 836.152344 C 458.277344 831.3125 464.816406 845.320312 473.097656 863.054688 C 477.519531 872.527344 482.53125 883.261719 491.308594 891.632812 C 510.785156 910.207031 503.523438 940.34375 493.570312 966.03125 L 496.398438 966.03125 C 501.730469 952.140625 506.222656 936.992188 506.222656 922.917969 C 506.222656 910.460938 502.703125 898.847656 493.132812 889.71875 Z M 69.109375 85.410156 C 74.933594 96.242188 80.125 106.808594 85.144531 117.023438 C 106.144531 159.761719 124.28125 196.667969 173.519531 222.035156 C 198.328125 234.816406 229.957031 236.976562 260.546875 239.066406 C 307.496094 242.277344 351.847656 245.308594 368.539062 285.027344 C 405.808594 373.691406 421.640625 495.613281 383.628906 546.160156 C 304.734375 651.0625 248.875 683.058594 172.664062 719.898438 C 134.066406 738.550781 89.507812 726.609375 37.910156 712.78125 C 25.925781 709.566406 13.230469 706.1875 0 703.015625 L 0 705.734375 C 12.984375 708.859375 25.449219 712.175781 37.226562 715.332031 C 89.332031 729.296875 134.332031 741.359375 173.8125 722.277344 C 250.375 685.269531 306.488281 653.132812 385.738281 547.75 C 403.292969 524.40625 408.292969 489.890625 408.292969 458.144531 C 408.292969 447.089844 407.683594 436.367188 406.792969 426.574219 C 402.542969 380.015625 389.488281 328.050781 370.976562 284.003906 C 353.652344 242.78125 308.515625 239.695312 260.726562 236.433594 C 230.40625 234.359375 199.050781 232.21875 174.730469 219.6875 C 126.269531 194.71875 108.3125 158.171875 87.515625 115.859375 C 82.484375 105.621094 77.28125 95.035156 71.4375 84.160156 C 56.984375 57.289062 39.75 25.285156 16.53125 -0.0195312 L 12.917969 -0.0195312 C 36.792969 25.328125 54.402344 58.0625 69.109375 85.410156 Z M 337.738281 533.699219 C 353.382812 513.476562 359.339844 484.054688 359.339844 452.648438 C 359.339844 419.289062 352.617188 383.703125 343.628906 354.5625 C 339.367188 340.761719 334.480469 327.605469 329.09375 315.460938 C 313.648438 280.652344 275.566406 277.230469 235.246094 273.609375 C 211.253906 271.453125 186.445312 269.226562 166.453125 259.894531 C 158.359375 256.117188 150.824219 251.800781 144.046875 247.0625 C 118.9375 229.5 105.289062 207.277344 89.484375 181.542969 C 84.871094 174.03125 80.097656 166.257812 74.839844 158.304688 C 56.484375 130.519531 33.269531 95.398438 0 76.164062 L 0 79.273438 C 32.066406 98.398438 54.703125 132.617188 72.636719 159.761719 C 77.867188 167.679688 82.628906 175.433594 87.230469 182.929688 C 103.191406 208.910156 116.96875 231.351562 142.535156 249.230469 C 149.433594 254.054688 157.105469 258.449219 165.332031 262.289062 C 185.746094 271.816406 210.792969 274.066406 235.011719 276.242188 C 274.535156 279.792969 311.863281 283.144531 326.679688 316.535156 C 332.023438 328.582031 336.875 341.636719 341.101562 355.339844 C 358.363281 411.308594 367.292969 491.179688 335.648438 532.082031 C 271.769531 614.648438 225.820312 640.488281 167.882812 667.972656 C 136.785156 682.738281 101.054688 673.878906 59.679688 663.625 C 41.554688 659.128906 21.414062 654.171875 0 650.828125 L 0 653.496094 C 20.886719 656.761719 40.238281 661.527344 59.042969 666.1875 C 100.910156 676.566406 137.066406 685.53125 169.015625 670.363281 C 227.289062 642.714844 273.5 616.730469 337.738281 533.699219 Z M 289.730469 519.65625 C 303.625 502.421875 310.742188 476.460938 310.738281 446.6875 C 310.738281 425.132812 307.007812 401.570312 299.421875 377.882812 C 295.890625 366.871094 291.78125 356.449219 287.207031 346.910156 C 273.476562 318.292969 242.164062 314.503906 209.019531 310.492188 C 191.570312 308.378906 173.527344 306.195312 158.144531 300.09375 C 151.601562 297.5 145.425781 294.558594 139.792969 291.347656 C 119.085938 279.542969 106.1875 264.582031 91.257812 247.265625 C 87.101562 242.445312 82.800781 237.460938 78.183594 232.382812 L 77.945312 232.125 C 57.71875 209.886719 33.414062 183.191406 0 172.5625 L 0 175.34375 C 32.375 185.960938 56.164062 212.105469 75.992188 233.902344 L 76.230469 234.164062 C 80.824219 239.214844 85.109375 244.183594 89.253906 248.992188 C 103.71875 265.765625 117.378906 281.613281 138.484375 293.644531 C 144.226562 296.914062 150.511719 299.910156 157.171875 302.550781 C 172.871094 308.777344 191.085938 310.980469 208.699219 313.117188 C 241.109375 317.039062 271.71875 320.742188 284.824219 348.050781 C 289.347656 357.484375 293.410156 367.792969 296.90625 378.691406 C 314.707031 434.273438 311.085938 488.953125 287.671875 517.996094 C 243.5 572.785156 211.066406 594.003906 163.105469 616.050781 C 139.429688 626.953125 112.433594 621.191406 81.179688 614.519531 C 64.878906 611.042969 48.019531 607.441406 29.449219 605.570312 C 19.261719 604.546875 9.460938 603.132812 0 601.382812 L 0 604.074219 C 9.382812 605.792969 19.097656 607.183594 29.183594 608.199219 C 47.613281 610.058594 64.394531 613.640625 80.625 617.105469 C 112.34375 623.875 139.734375 629.722656 164.210938 618.453125 C 212.542969 596.230469 245.226562 574.851562 289.730469 519.65625 Z M 241.707031 505.625 C 255.277344 489.917969 262.371094 467.667969 262.367188 443.605469 C 262.367188 429.765625 260.019531 415.324219 255.210938 401.195312 C 252.410156 392.976562 249.078125 385.285156 245.308594 378.335938 C 232.6875 355.109375 207.050781 350.886719 179.914062 346.414062 C 169.859375 344.757812 159.460938 343.042969 149.789062 340.285156 C 144.628906 338.8125 139.941406 337.285156 135.449219 335.605469 C 119.167969 329.523438 106.28125 321.617188 92.640625 313.242188 C 88.984375 310.996094 85.25 308.707031 81.351562 306.386719 L 78.695312 304.800781 C 56.730469 291.699219 31.859375 276.898438 0 274.148438 L 0 276.804688 C 31.152344 279.554688 55.675781 294.148438 77.339844 307.070312 L 80 308.65625 C 83.886719 310.972656 87.609375 313.257812 91.257812 315.492188 C 105.011719 323.9375 118.003906 331.914062 134.527344 338.082031 C 139.078125 339.785156 143.835938 341.335938 149.0625 342.824219 C 158.882812 345.628906 169.355469 347.355469 179.484375 349.023438 C 205.96875 353.386719 230.980469 357.507812 242.984375 379.59375 C 246.683594 386.414062 249.957031 393.96875 252.710938 402.046875 C 265.589844 439.878906 260.476562 479.855469 239.707031 503.898438 C 210.714844 537.460938 187.917969 551.390625 158.339844 564.121094 C 141.761719 571.273438 123.175781 568.644531 101.65625 565.601562 C 92.484375 564.304688 83.007812 562.964844 72.863281 562.246094 C 45.734375 560.324219 21.445312 555.117188 0 546.777344 L 0 549.617188 C 21.457031 557.832031 45.679688 562.972656 72.679688 564.882812 C 82.726562 565.59375 92.160156 566.925781 101.285156 568.21875 C 123.199219 571.316406 142.128906 573.996094 159.386719 566.546875 C 188.5625 553.992188 212.511719 539.421875 241.707031 505.625 Z M 193.628906 491.652344 C 207.695312 478.277344 215.007812 462.242188 215.007812 445.699219 C 215.007812 438.664062 213.683594 431.535156 210.996094 424.488281 C 196.777344 387.222656 162.519531 381.023438 130.886719 379.871094 C 117.179688 379.375 102.574219 379.847656 87.109375 380.347656 C 60.828125 381.195312 33.648438 382.074219 6.484375 378.425781 C 4.265625 378.125 2.113281 377.898438 0 377.703125 L 0 380.351562 C 2 380.542969 4.03125 380.757812 6.132812 381.042969 C 33.515625 384.722656 60.804688 383.839844 87.195312 382.988281 C 102.613281 382.488281 117.175781 382.015625 130.789062 382.515625 C 163.109375 383.6875 194.894531 389.699219 208.523438 425.429688 C 217.261719 448.324219 211.332031 471.175781 191.804688 489.738281 C 173.480469 507.15625 145.214844 518.066406 116.1875 518.921875 C 78.152344 520.042969 38.691406 510.9375 7.914062 493.941406 C 5.1875 492.433594 2.566406 490.855469 0 489.242188 L 0 492.375 C 2.160156 493.699219 4.367188 495 6.636719 496.253906 C 37.816406 513.472656 77.773438 522.699219 116.265625 521.566406 C 145.925781 520.691406 174.84375 509.507812 193.628906 491.652344 Z M 121.527344 129.265625 C 161.933594 224.050781 278.28125 211.539062 401.457031 198.289062 C 413.90625 196.953125 426.433594 195.605469 438.972656 194.355469 C 480.179688 190.257812 490.742188 197.238281 501.929688 204.628906 C 512.949219 211.902344 525.4375 220.152344 567.433594 219.292969 C 634.273438 217.929688 712.054688 180.425781 721.300781 126.777344 C 727.167969 92.742188 730.175781 53.265625 730.175781 12.003906 C 730.175781 8.015625 730.132812 4 730.078125 -0.0195312 L 727.441406 -0.0195312 C 728.082031 45.421875 725.105469 89.144531 718.695312 126.328125 C 709.671875 178.691406 633.167969 215.304688 567.378906 216.648438 C 526.207031 217.496094 514.605469 209.832031 503.386719 202.421875 C 491.796875 194.765625 480.851562 187.535156 438.710938 191.730469 C 426.164062 192.976562 413.628906 194.324219 401.175781 195.664062 C 279 208.804688 163.597656 221.214844 123.960938 128.226562 C 100.976562 74.308594 113.914062 41.777344 124.304688 15.640625 C 126.414062 10.335938 128.410156 5.320312 129.914062 0.527344 C 129.972656 0.34375 130.039062 0.160156 130.097656 -0.0195312 L 127.3125 -0.0195312 C 125.839844 4.613281 123.90625 9.496094 121.847656 14.664062 C 111.835938 39.851562 98.121094 74.355469 121.527344 129.265625 Z M 180.703125 41.585938 C 178.769531 65.542969 185.097656 89.378906 201.875 121.25 L 201.875 121.253906 C 239.613281 192.933594 330.464844 183.5 426.648438 173.507812 C 434.246094 172.71875 441.890625 171.925781 449.5625 171.164062 C 481.027344 168.039062 489.511719 173.183594 498.488281 178.625 C 507.339844 183.992188 517.375 190.074219 549.503906 189.289062 C 605.59375 187.757812 659.671875 155.824219 670.054688 118.101562 C 677.921875 89.511719 686.453125 56.046875 688.113281 20.671875 C 688.359375 15.453125 688.484375 10.105469 688.484375 4.652344 C 688.484375 3.109375 688.449219 1.539062 688.429688 -0.0195312 L 685.761719 -0.0195312 C 685.851562 7.003906 685.789062 13.902344 685.472656 20.546875 C 683.828125 55.652344 675.335938 88.945312 667.507812 117.398438 C 657.410156 154.082031 604.441406 185.144531 549.4375 186.648438 C 518.082031 187.410156 508.820312 181.792969 499.859375 176.363281 C 490.492188 170.6875 481.644531 165.324219 449.300781 168.53125 C 441.625 169.292969 433.976562 170.089844 426.375 170.878906 C 331.105469 180.773438 241.121094 190.121094 204.214844 120.019531 C 187.691406 88.628906 181.445312 65.238281 183.339844 41.796875 C 184.347656 29.308594 188.5625 18.722656 192.640625 8.484375 C 193.757812 5.6875 194.84375 2.960938 195.824219 0.28125 C 195.863281 0.179688 195.910156 0.078125 195.945312 -0.0195312 L 193.113281 -0.0195312 C 192.199219 2.441406 191.207031 4.941406 190.1875 7.507812 C 186.230469 17.441406 181.746094 28.699219 180.703125 41.585938 Z M 249.058594 41.027344 C 251.25 68.175781 265.621094 89.074219 282.257812 113.269531 C 315.957031 162.285156 382.707031 155.660156 453.375 148.644531 L 460.152344 147.972656 C 481.847656 145.828125 488.253906 149.15625 495.039062 152.679688 C 502.046875 156.316406 509.289062 160.078125 531.582031 159.285156 C 569.535156 157.925781 607.019531 136.515625 618.773438 109.472656 C 620.246094 106.089844 621.769531 102.671875 623.3125 99.210938 C 633.109375 77.222656 643.242188 54.488281 646.035156 28.449219 C 646.699219 22.273438 647.035156 15.84375 647.035156 9.1875 C 647.035156 6.167969 646.941406 3.085938 646.804688 -0.0195312 L 644.175781 -0.0195312 C 644.617188 9.847656 644.367188 19.285156 643.40625 28.164062 C 640.660156 53.792969 630.613281 76.335938 620.894531 98.136719 C 619.351562 101.605469 617.824219 105.03125 616.351562 108.417969 C 605.160156 134.160156 567.882812 155.339844 531.488281 156.640625 C 509.890625 157.414062 502.960938 153.8125 496.257812 150.332031 C 489.113281 146.625 482.367188 143.121094 459.890625 145.339844 L 453.113281 146.015625 C 380.210938 153.253906 317.25 159.503906 284.4375 111.773438 C 268.011719 87.886719 253.828125 67.257812 251.695312 40.816406 C 251.585938 39.449219 251.53125 38.097656 251.53125 36.765625 C 251.53125 23.976562 256.351562 12.667969 261.027344 1.695312 L 261.730469 0.0429688 C 261.742188 0.0234375 261.75 0 261.761719 -0.0195312 L 258.886719 -0.0195312 L 258.597656 0.660156 C 253.308594 13.066406 247.847656 25.894531 249.058594 41.027344 Z M 317.449219 40.449219 C 323.769531 67.367188 338.570312 88.605469 362.703125 105.367188 C 382.511719 133.449219 422.953125 129.476562 465.761719 125.269531 L 470.738281 124.78125 C 482.699219 123.613281 487.054688 125.117188 491.664062 126.710938 C 496.375 128.339844 501.246094 130.027344 513.679688 129.277344 C 537.492188 127.84375 560.527344 115.683594 567.433594 100.9375 C 586.367188 83.574219 599.332031 60.613281 603.945312 36.25 C 605.113281 30.101562 605.699219 23.667969 605.699219 16.992188 C 605.699219 11.480469 605.277344 5.792969 604.480469 -0.0195312 L 601.8125 -0.0195312 C 603.585938 12.6875 603.449219 24.710938 601.347656 35.757812 C 596.824219 59.644531 584.078125 82.164062 565.453125 99.164062 L 565.140625 99.59375 C 558.753906 113.625 536.5625 125.25 513.519531 126.640625 C 501.609375 127.355469 496.992188 125.757812 492.527344 124.210938 C 487.636719 122.523438 483.019531 120.925781 470.480469 122.152344 L 465.503906 122.636719 C 423.386719 126.777344 383.605469 130.6875 364.734375 103.65625 L 364.402344 103.328125 C 340.71875 86.9375 326.203125 66.171875 320.019531 39.847656 C 319.253906 36.585938 318.917969 33.378906 318.917969 30.238281 C 318.917969 19.15625 323.117188 8.894531 327.546875 -0.0195312 L 324.605469 -0.0195312 C 318.9375 11.601562 313.910156 25.386719 317.449219 40.449219 Z M 385.859375 39.851562 C 400.09375 76.773438 425.085938 91.613281 443.546875 97.558594 C 466.25 104.875 492.539062 103.046875 515.671875 92.539062 C 538.769531 82.054688 555.59375 64.394531 561.835938 44.085938 C 563.652344 38.175781 564.5625 32.132812 564.5625 26.011719 C 564.5625 20.578125 563.847656 15.078125 562.410156 9.550781 C 561.582031 6.355469 560.511719 3.164062 559.210938 -0.0195312 L 556.316406 -0.0195312 C 557.765625 3.386719 558.964844 6.800781 559.851562 10.21875 C 562.78125 21.488281 562.59375 32.621094 559.308594 43.3125 C 553.289062 62.894531 536.984375 79.960938 514.582031 90.132812 C 492.039062 100.371094 466.441406 102.160156 444.355469 95.046875 C 426.445312 89.273438 402.183594 74.847656 388.324219 38.902344 C 386.535156 34.265625 385.644531 29.546875 385.644531 24.753906 C 385.644531 16.660156 388.203125 8.371094 393.289062 -0.0195312 L 390.226562 -0.0195312 C 382.390625 13.605469 380.90625 27.011719 385.859375 39.851562 Z M 1381.265625 208.527344 C 1393.058594 206.105469 1413.988281 206.566406 1425.171875 211.101562 C 1433.179688 214.351562 1437.996094 225.253906 1440 237.210938 L 1440 263.074219 C 1438.402344 272.035156 1434.914062 280.210938 1428.664062 282.933594 C 1403.628906 293.84375 1386.859375 273.925781 1372.0625 256.355469 C 1366.734375 250.027344 1361.703125 244.054688 1356.417969 239.441406 C 1352.027344 235.609375 1351.925781 231.691406 1352.613281 229.09375 C 1355.265625 219.011719 1374.136719 209.992188 1381.265625 208.527344 Z M 1381.796875 211.117188 C 1374.980469 212.519531 1357.414062 221.242188 1355.167969 229.765625 C 1354.433594 232.539062 1355.414062 235.058594 1358.152344 237.449219 C 1363.59375 242.195312 1368.6875 248.246094 1374.082031 254.652344 C 1388.976562 272.34375 1404.378906 290.632812 1427.605469 280.511719 C 1434.136719 277.664062 1438.445312 265.660156 1438.445312 250.472656 C 1438.445312 250.128906 1438.445312 249.785156 1438.441406 249.4375 C 1438.253906 234.863281 1433.710938 217.417969 1424.179688 213.550781 C 1413.742188 209.316406 1393.195312 208.773438 1381.796875 211.117188 Z M 1381.796875 211.117188 " clip-rule="nonzero"/></clipPath><linearGradient x1="14.245181" gradientTransform="matrix(0, -2.88, 2.88, 0, -0.00180194, 966.030588)" y1="27.460543" x2="337.972668" gradientUnits="userSpaceOnUse" y2="498.224003" id="0e5faa94c2"><stop stop-opacity="1" stop-color="rgb(88.769531%, 40.924072%, 92.500305%)" offset="0"/><stop stop-opacity="1" stop-color="rgb(88.647461%, 40.826416%, 92.573547%)" offset="0.0078125"/><stop stop-opacity="1" stop-color="rgb(88.404846%, 40.629578%, 92.720032%)" offset="0.015625"/><stop stop-opacity="1" stop-color="rgb(88.160706%, 40.434265%, 92.866516%)" offset="0.0234375"/><stop stop-opacity="1" stop-color="rgb(87.918091%, 40.237427%, 93.013%)" offset="0.03125"/><stop stop-opacity="1" stop-color="rgb(87.67395%, 40.040588%, 93.159485%)" offset="0.0390625"/><stop stop-opacity="1" stop-color="rgb(87.431335%, 39.845276%, 93.305969%)" offset="0.046875"/><stop stop-opacity="1" stop-color="rgb(87.187195%, 39.648438%, 93.452454%)" offset="0.0546875"/><stop stop-opacity="1" stop-color="rgb(86.94458%, 39.453125%, 93.598938%)" offset="0.0625"/><stop stop-opacity="1" stop-color="rgb(86.700439%, 39.256287%, 93.745422%)" offset="0.0703125"/><stop stop-opacity="1" stop-color="rgb(86.457825%, 39.059448%, 93.891907%)" offset="0.078125"/><stop stop-opacity="1" stop-color="rgb(86.213684%, 38.864136%, 94.038391%)" offset="0.0859375"/><stop stop-opacity="1" stop-color="rgb(85.971069%, 38.667297%, 94.186401%)" offset="0.09375"/><stop stop-opacity="1" stop-color="rgb(85.726929%, 38.471985%, 94.332886%)" offset="0.101563"/><stop stop-opacity="1" stop-color="rgb(85.484314%, 38.275146%, 94.47937%)" offset="0.109375"/><stop stop-opacity="1" stop-color="rgb(85.240173%, 38.079834%, 94.625854%)" offset="0.117188"/><stop stop-opacity="1" stop-color="rgb(84.997559%, 37.882996%, 94.772339%)" offset="0.125"/><stop stop-opacity="1" stop-color="rgb(84.753418%, 37.686157%, 94.918823%)" offset="0.132813"/><stop stop-opacity="1" stop-color="rgb(84.510803%, 37.490845%, 95.065308%)" offset="0.140625"/><stop stop-opacity="1" stop-color="rgb(84.266663%, 37.294006%, 95.211792%)" offset="0.148438"/><stop stop-opacity="1" stop-color="rgb(84.024048%, 37.098694%, 95.358276%)" offset="0.15625"/><stop stop-opacity="1" stop-color="rgb(83.779907%, 36.901855%, 95.504761%)" offset="0.164062"/><stop stop-opacity="1" stop-color="rgb(83.537292%, 36.705017%, 95.651245%)" offset="0.171875"/><stop stop-opacity="1" stop-color="rgb(83.293152%, 36.509705%, 95.797729%)" offset="0.179688"/><stop stop-opacity="1" stop-color="rgb(83.050537%, 36.312866%, 95.944214%)" offset="0.1875"/><stop stop-opacity="1" stop-color="rgb(82.806396%, 36.117554%, 96.090698%)" offset="0.195312"/><stop stop-opacity="1" stop-color="rgb(82.563782%, 35.920715%, 96.237183%)" offset="0.203125"/><stop stop-opacity="1" stop-color="rgb(82.319641%, 35.725403%, 96.383667%)" offset="0.210938"/><stop stop-opacity="1" stop-color="rgb(82.077026%, 35.528564%, 96.530151%)" offset="0.21875"/><stop stop-opacity="1" stop-color="rgb(81.832886%, 35.331726%, 96.676636%)" offset="0.226562"/><stop stop-opacity="1" stop-color="rgb(81.590271%, 35.136414%, 96.82312%)" offset="0.234375"/><stop stop-opacity="1" stop-color="rgb(81.34613%, 34.939575%, 96.969604%)" offset="0.242188"/><stop stop-opacity="1" stop-color="rgb(81.103516%, 34.744263%, 97.116089%)" offset="0.25"/><stop stop-opacity="1" stop-color="rgb(80.734253%, 34.591675%, 97.138977%)" offset="0.253906"/><stop stop-opacity="1" stop-color="rgb(80.488586%, 34.538269%, 97.088623%)" offset="0.257812"/><stop stop-opacity="1" stop-color="rgb(79.870605%, 34.614563%, 96.66748%)" offset="0.261719"/><stop stop-opacity="1" stop-color="rgb(79.25415%, 34.690857%, 96.247864%)" offset="0.265625"/><stop stop-opacity="1" stop-color="rgb(78.636169%, 34.767151%, 95.828247%)" offset="0.269531"/><stop stop-opacity="1" stop-color="rgb(78.019714%, 34.843445%, 95.40863%)" offset="0.273438"/><stop stop-opacity="1" stop-color="rgb(77.401733%, 34.919739%, 94.987488%)" offset="0.277344"/><stop stop-opacity="1" stop-color="rgb(76.783752%, 34.996033%, 94.567871%)" offset="0.28125"/><stop stop-opacity="1" stop-color="rgb(76.165771%, 35.072327%, 94.148254%)" offset="0.285156"/><stop stop-opacity="1" stop-color="rgb(75.549316%, 35.148621%, 93.728638%)" offset="0.289063"/><stop stop-opacity="1" stop-color="rgb(74.931335%, 35.224915%, 93.307495%)" offset="0.292969"/><stop stop-opacity="1" stop-color="rgb(74.31488%, 35.301208%, 92.887878%)" offset="0.296875"/><stop stop-opacity="1" stop-color="rgb(73.696899%, 35.377502%, 92.466736%)" offset="0.300781"/><stop stop-opacity="1" stop-color="rgb(73.078918%, 35.453796%, 92.047119%)" offset="0.304688"/><stop stop-opacity="1" stop-color="rgb(72.460938%, 35.53009%, 91.627502%)" offset="0.308594"/><stop stop-opacity="1" stop-color="rgb(71.844482%, 35.606384%, 91.207886%)" offset="0.3125"/><stop stop-opacity="1" stop-color="rgb(71.226501%, 35.682678%, 90.786743%)" offset="0.316406"/><stop stop-opacity="1" stop-color="rgb(70.610046%, 35.758972%, 90.367126%)" offset="0.320312"/><stop stop-opacity="1" stop-color="rgb(69.992065%, 35.835266%, 89.94751%)" offset="0.324219"/><stop stop-opacity="1" stop-color="rgb(69.374084%, 35.91156%, 89.527893%)" offset="0.328125"/><stop stop-opacity="1" stop-color="rgb(68.756104%, 35.987854%, 89.10675%)" offset="0.332031"/><stop stop-opacity="1" stop-color="rgb(68.139648%, 36.065674%, 88.687134%)" offset="0.335938"/><stop stop-opacity="1" stop-color="rgb(67.521667%, 36.141968%, 88.267517%)" offset="0.339844"/><stop stop-opacity="1" stop-color="rgb(66.905212%, 36.218262%, 87.8479%)" offset="0.34375"/><stop stop-opacity="1" stop-color="rgb(66.287231%, 36.294556%, 87.426758%)" offset="0.347656"/><stop stop-opacity="1" stop-color="rgb(65.66925%, 36.37085%, 87.007141%)" offset="0.351562"/><stop stop-opacity="1" stop-color="rgb(65.05127%, 36.447144%, 86.587524%)" offset="0.355469"/><stop stop-opacity="1" stop-color="rgb(64.434814%, 36.523438%, 86.167908%)" offset="0.359375"/><stop stop-opacity="1" stop-color="rgb(63.816833%, 36.599731%, 85.746765%)" offset="0.363281"/><stop stop-opacity="1" stop-color="rgb(63.200378%, 36.676025%, 85.327148%)" offset="0.367188"/><stop stop-opacity="1" stop-color="rgb(62.582397%, 36.752319%, 84.907532%)" offset="0.371094"/><stop stop-opacity="1" stop-color="rgb(61.964417%, 36.828613%, 84.487915%)" offset="0.375"/><stop stop-opacity="1" stop-color="rgb(61.346436%, 36.904907%, 84.066772%)" offset="0.378906"/><stop stop-opacity="1" stop-color="rgb(60.72998%, 36.981201%, 83.647156%)" offset="0.382812"/><stop stop-opacity="1" stop-color="rgb(60.112%, 37.057495%, 83.227539%)" offset="0.386719"/><stop stop-opacity="1" stop-color="rgb(59.495544%, 37.133789%, 82.807922%)" offset="0.390625"/><stop stop-opacity="1" stop-color="rgb(58.877563%, 37.210083%, 82.38678%)" offset="0.394531"/><stop stop-opacity="1" stop-color="rgb(58.259583%, 37.286377%, 81.967163%)" offset="0.398438"/><stop stop-opacity="1" stop-color="rgb(57.641602%, 37.362671%, 81.546021%)" offset="0.402344"/><stop stop-opacity="1" stop-color="rgb(57.025146%, 37.438965%, 81.126404%)" offset="0.40625"/><stop stop-opacity="1" stop-color="rgb(56.407166%, 37.515259%, 80.706787%)" offset="0.410156"/><stop stop-opacity="1" stop-color="rgb(55.79071%, 37.593079%, 80.28717%)" offset="0.414062"/><stop stop-opacity="1" stop-color="rgb(55.172729%, 37.669373%, 79.866028%)" offset="0.417969"/><stop stop-opacity="1" stop-color="rgb(54.554749%, 37.745667%, 79.446411%)" offset="0.421875"/><stop stop-opacity="1" stop-color="rgb(53.936768%, 37.82196%, 79.026794%)" offset="0.425781"/><stop stop-opacity="1" stop-color="rgb(53.320312%, 37.898254%, 78.607178%)" offset="0.429688"/><stop stop-opacity="1" stop-color="rgb(52.702332%, 37.974548%, 78.186035%)" offset="0.433594"/><stop stop-opacity="1" stop-color="rgb(52.085876%, 38.050842%, 77.766418%)" offset="0.4375"/><stop stop-opacity="1" stop-color="rgb(51.467896%, 38.127136%, 77.346802%)" offset="0.441406"/><stop stop-opacity="1" stop-color="rgb(50.849915%, 38.20343%, 76.927185%)" offset="0.445313"/><stop stop-opacity="1" stop-color="rgb(50.231934%, 38.279724%, 76.506042%)" offset="0.449219"/><stop stop-opacity="1" stop-color="rgb(49.615479%, 38.356018%, 76.086426%)" offset="0.453125"/><stop stop-opacity="1" stop-color="rgb(48.997498%, 38.432312%, 75.666809%)" offset="0.457031"/><stop stop-opacity="1" stop-color="rgb(48.381042%, 38.508606%, 75.247192%)" offset="0.460938"/><stop stop-opacity="1" stop-color="rgb(47.763062%, 38.5849%, 74.82605%)" offset="0.464844"/><stop stop-opacity="1" stop-color="rgb(47.145081%, 38.661194%, 74.406433%)" offset="0.46875"/><stop stop-opacity="1" stop-color="rgb(46.5271%, 38.737488%, 73.986816%)" offset="0.472656"/><stop stop-opacity="1" stop-color="rgb(45.910645%, 38.813782%, 73.5672%)" offset="0.476563"/><stop stop-opacity="1" stop-color="rgb(45.292664%, 38.890076%, 73.146057%)" offset="0.480469"/><stop stop-opacity="1" stop-color="rgb(44.676208%, 38.96637%, 72.72644%)" offset="0.484375"/><stop stop-opacity="1" stop-color="rgb(44.058228%, 39.042664%, 72.306824%)" offset="0.488281"/><stop stop-opacity="1" stop-color="rgb(43.440247%, 39.120483%, 71.887207%)" offset="0.492188"/><stop stop-opacity="1" stop-color="rgb(42.822266%, 39.196777%, 71.466064%)" offset="0.496094"/><stop stop-opacity="1" stop-color="rgb(42.205811%, 39.273071%, 71.046448%)" offset="0.5"/><stop stop-opacity="1" stop-color="rgb(41.58783%, 39.349365%, 70.625305%)" offset="0.503906"/><stop stop-opacity="1" stop-color="rgb(40.971375%, 39.425659%, 70.205688%)" offset="0.507812"/><stop stop-opacity="1" stop-color="rgb(40.353394%, 39.501953%, 69.786072%)" offset="0.511719"/><stop stop-opacity="1" stop-color="rgb(39.735413%, 39.578247%, 69.366455%)" offset="0.515625"/><stop stop-opacity="1" stop-color="rgb(39.117432%, 39.654541%, 68.945312%)" offset="0.519531"/><stop stop-opacity="1" stop-color="rgb(38.500977%, 39.730835%, 68.525696%)" offset="0.523438"/><stop stop-opacity="1" stop-color="rgb(37.882996%, 39.807129%, 68.106079%)" offset="0.527344"/><stop stop-opacity="1" stop-color="rgb(37.266541%, 39.883423%, 67.686462%)" offset="0.53125"/><stop stop-opacity="1" stop-color="rgb(36.64856%, 39.959717%, 67.26532%)" offset="0.535156"/><stop stop-opacity="1" stop-color="rgb(36.030579%, 40.036011%, 66.845703%)" offset="0.539063"/><stop stop-opacity="1" stop-color="rgb(35.412598%, 40.112305%, 66.426086%)" offset="0.542969"/><stop stop-opacity="1" stop-color="rgb(34.796143%, 40.188599%, 66.00647%)" offset="0.546875"/><stop stop-opacity="1" stop-color="rgb(34.178162%, 40.264893%, 65.585327%)" offset="0.550781"/><stop stop-opacity="1" stop-color="rgb(33.561707%, 40.341187%, 65.16571%)" offset="0.554688"/><stop stop-opacity="1" stop-color="rgb(32.943726%, 40.41748%, 64.746094%)" offset="0.558594"/><stop stop-opacity="1" stop-color="rgb(32.325745%, 40.493774%, 64.326477%)" offset="0.5625"/><stop stop-opacity="1" stop-color="rgb(31.707764%, 40.570068%, 63.905334%)" offset="0.566406"/><stop stop-opacity="1" stop-color="rgb(31.091309%, 40.646362%, 63.485718%)" offset="0.570313"/><stop stop-opacity="1" stop-color="rgb(30.473328%, 40.722656%, 63.066101%)" offset="0.574219"/><stop stop-opacity="1" stop-color="rgb(29.856873%, 40.800476%, 62.646484%)" offset="0.578125"/><stop stop-opacity="1" stop-color="rgb(29.238892%, 40.87677%, 62.225342%)" offset="0.582031"/><stop stop-opacity="1" stop-color="rgb(28.620911%, 40.953064%, 61.805725%)" offset="0.585938"/><stop stop-opacity="1" stop-color="rgb(28.00293%, 41.029358%, 61.386108%)" offset="0.589844"/><stop stop-opacity="1" stop-color="rgb(27.386475%, 41.105652%, 60.966492%)" offset="0.59375"/><stop stop-opacity="1" stop-color="rgb(26.768494%, 41.181946%, 60.545349%)" offset="0.597656"/><stop stop-opacity="1" stop-color="rgb(26.152039%, 41.25824%, 60.125732%)" offset="0.601563"/><stop stop-opacity="1" stop-color="rgb(25.534058%, 41.334534%, 59.70459%)" offset="0.605469"/><stop stop-opacity="1" stop-color="rgb(24.916077%, 41.410828%, 59.284973%)" offset="0.609375"/><stop stop-opacity="1" stop-color="rgb(24.298096%, 41.487122%, 58.865356%)" offset="0.613281"/><stop stop-opacity="1" stop-color="rgb(23.681641%, 41.563416%, 58.44574%)" offset="0.617188"/><stop stop-opacity="1" stop-color="rgb(23.06366%, 41.639709%, 58.024597%)" offset="0.621094"/><stop stop-opacity="1" stop-color="rgb(22.447205%, 41.716003%, 57.60498%)" offset="0.625"/><stop stop-opacity="1" stop-color="rgb(21.829224%, 41.792297%, 57.185364%)" offset="0.628906"/><stop stop-opacity="1" stop-color="rgb(21.211243%, 41.868591%, 56.765747%)" offset="0.632812"/><stop stop-opacity="1" stop-color="rgb(20.593262%, 41.944885%, 56.344604%)" offset="0.636719"/><stop stop-opacity="1" stop-color="rgb(19.976807%, 42.021179%, 55.924988%)" offset="0.640625"/><stop stop-opacity="1" stop-color="rgb(19.358826%, 42.097473%, 55.505371%)" offset="0.644531"/><stop stop-opacity="1" stop-color="rgb(18.742371%, 42.173767%, 55.085754%)" offset="0.648438"/><stop stop-opacity="1" stop-color="rgb(18.12439%, 42.250061%, 54.664612%)" offset="0.652344"/><stop stop-opacity="1" stop-color="rgb(17.506409%, 42.327881%, 54.244995%)" offset="0.65625"/><stop stop-opacity="1" stop-color="rgb(16.888428%, 42.404175%, 53.825378%)" offset="0.660156"/><stop stop-opacity="1" stop-color="rgb(16.271973%, 42.480469%, 53.405762%)" offset="0.664062"/><stop stop-opacity="1" stop-color="rgb(15.653992%, 42.556763%, 52.984619%)" offset="0.667969"/><stop stop-opacity="1" stop-color="rgb(15.037537%, 42.633057%, 52.565002%)" offset="0.671875"/><stop stop-opacity="1" stop-color="rgb(15.367126%, 42.64679%, 52.554321%)" offset="0.675781"/><stop stop-opacity="1" stop-color="rgb(15.698242%, 42.662048%, 52.545166%)" offset="0.679688"/><stop stop-opacity="1" stop-color="rgb(16.758728%, 42.628479%, 52.851868%)" offset="0.683594"/><stop stop-opacity="1" stop-color="rgb(17.82074%, 42.59491%, 53.158569%)" offset="0.6875"/><stop stop-opacity="1" stop-color="rgb(18.882751%, 42.56134%, 53.465271%)" offset="0.691406"/><stop stop-opacity="1" stop-color="rgb(19.944763%, 42.527771%, 53.771973%)" offset="0.695312"/><stop stop-opacity="1" stop-color="rgb(21.005249%, 42.494202%, 54.078674%)" offset="0.699219"/><stop stop-opacity="1" stop-color="rgb(22.067261%, 42.460632%, 54.385376%)" offset="0.703125"/><stop stop-opacity="1" stop-color="rgb(23.129272%, 42.427063%, 54.692078%)" offset="0.707031"/><stop stop-opacity="1" stop-color="rgb(24.191284%, 42.393494%, 54.998779%)" offset="0.710938"/><stop stop-opacity="1" stop-color="rgb(25.253296%, 42.359924%, 55.305481%)" offset="0.714844"/><stop stop-opacity="1" stop-color="rgb(26.315308%, 42.326355%, 55.612183%)" offset="0.71875"/><stop stop-opacity="1" stop-color="rgb(27.375793%, 42.292786%, 55.918884%)" offset="0.722656"/><stop stop-opacity="1" stop-color="rgb(28.437805%, 42.259216%, 56.225586%)" offset="0.726562"/><stop stop-opacity="1" stop-color="rgb(29.499817%, 42.225647%, 56.532288%)" offset="0.730469"/><stop stop-opacity="1" stop-color="rgb(30.561829%, 42.192078%, 56.838989%)" offset="0.734375"/><stop stop-opacity="1" stop-color="rgb(31.622314%, 42.158508%, 57.145691%)" offset="0.738281"/><stop stop-opacity="1" stop-color="rgb(32.684326%, 42.124939%, 57.452393%)" offset="0.742188"/><stop stop-opacity="1" stop-color="rgb(33.746338%, 42.09137%, 57.759094%)" offset="0.746094"/><stop stop-opacity="1" stop-color="rgb(34.80835%, 42.0578%, 58.065796%)" offset="0.75"/><stop stop-opacity="1" stop-color="rgb(35.870361%, 42.024231%, 58.372498%)" offset="0.753906"/><stop stop-opacity="1" stop-color="rgb(36.932373%, 41.990662%, 58.679199%)" offset="0.757813"/><stop stop-opacity="1" stop-color="rgb(37.992859%, 41.957092%, 58.985901%)" offset="0.761719"/><stop stop-opacity="1" stop-color="rgb(39.054871%, 41.923523%, 59.292603%)" offset="0.765625"/><stop stop-opacity="1" stop-color="rgb(40.116882%, 41.889954%, 59.599304%)" offset="0.769531"/><stop stop-opacity="1" stop-color="rgb(41.178894%, 41.856384%, 59.906006%)" offset="0.773438"/><stop stop-opacity="1" stop-color="rgb(42.23938%, 41.822815%, 60.212708%)" offset="0.777344"/><stop stop-opacity="1" stop-color="rgb(43.301392%, 41.789246%, 60.519409%)" offset="0.78125"/><stop stop-opacity="1" stop-color="rgb(44.363403%, 41.755676%, 60.826111%)" offset="0.785156"/><stop stop-opacity="1" stop-color="rgb(45.425415%, 41.722107%, 61.132812%)" offset="0.789062"/><stop stop-opacity="1" stop-color="rgb(46.487427%, 41.688538%, 61.439514%)" offset="0.792969"/><stop stop-opacity="1" stop-color="rgb(47.549438%, 41.654968%, 61.746216%)" offset="0.796875"/><stop stop-opacity="1" stop-color="rgb(48.609924%, 41.621399%, 62.052917%)" offset="0.800781"/><stop stop-opacity="1" stop-color="rgb(49.671936%, 41.58783%, 62.359619%)" offset="0.804688"/><stop stop-opacity="1" stop-color="rgb(50.733948%, 41.55426%, 62.666321%)" offset="0.808594"/><stop stop-opacity="1" stop-color="rgb(51.795959%, 41.520691%, 62.973022%)" offset="0.8125"/><stop stop-opacity="1" stop-color="rgb(52.856445%, 41.487122%, 63.279724%)" offset="0.816406"/><stop stop-opacity="1" stop-color="rgb(53.918457%, 41.455078%, 63.587952%)" offset="0.820312"/><stop stop-opacity="1" stop-color="rgb(54.980469%, 41.421509%, 63.894653%)" offset="0.824219"/><stop stop-opacity="1" stop-color="rgb(56.04248%, 41.387939%, 64.201355%)" offset="0.828125"/><stop stop-opacity="1" stop-color="rgb(57.104492%, 41.35437%, 64.508057%)" offset="0.832031"/><stop stop-opacity="1" stop-color="rgb(58.166504%, 41.320801%, 64.814758%)" offset="0.835938"/><stop stop-opacity="1" stop-color="rgb(59.22699%, 41.287231%, 65.12146%)" offset="0.839844"/><stop stop-opacity="1" stop-color="rgb(60.289001%, 41.253662%, 65.428162%)" offset="0.84375"/><stop stop-opacity="1" stop-color="rgb(61.351013%, 41.220093%, 65.734863%)" offset="0.847656"/><stop stop-opacity="1" stop-color="rgb(62.413025%, 41.186523%, 66.041565%)" offset="0.851562"/><stop stop-opacity="1" stop-color="rgb(63.473511%, 41.152954%, 66.348267%)" offset="0.855469"/><stop stop-opacity="1" stop-color="rgb(64.535522%, 41.119385%, 66.654968%)" offset="0.859375"/><stop stop-opacity="1" stop-color="rgb(65.597534%, 41.085815%, 66.96167%)" offset="0.863281"/><stop stop-opacity="1" stop-color="rgb(66.659546%, 41.052246%, 67.268372%)" offset="0.867188"/><stop stop-opacity="1" stop-color="rgb(67.721558%, 41.018677%, 67.575073%)" offset="0.871094"/><stop stop-opacity="1" stop-color="rgb(68.783569%, 40.985107%, 67.881775%)" offset="0.875"/><stop stop-opacity="1" stop-color="rgb(69.844055%, 40.951538%, 68.188477%)" offset="0.878906"/><stop stop-opacity="1" stop-color="rgb(70.906067%, 40.917969%, 68.495178%)" offset="0.882812"/><stop stop-opacity="1" stop-color="rgb(71.968079%, 40.884399%, 68.80188%)" offset="0.886719"/><stop stop-opacity="1" stop-color="rgb(73.03009%, 40.85083%, 69.108582%)" offset="0.890625"/><stop stop-opacity="1" stop-color="rgb(74.092102%, 40.817261%, 69.415283%)" offset="0.894531"/><stop stop-opacity="1" stop-color="rgb(75.154114%, 40.783691%, 69.721985%)" offset="0.898438"/><stop stop-opacity="1" stop-color="rgb(76.2146%, 40.750122%, 70.028687%)" offset="0.902344"/><stop stop-opacity="1" stop-color="rgb(77.276611%, 40.716553%, 70.335388%)" offset="0.90625"/><stop stop-opacity="1" stop-color="rgb(78.338623%, 40.682983%, 70.64209%)" offset="0.910156"/><stop stop-opacity="1" stop-color="rgb(79.400635%, 40.649414%, 70.948792%)" offset="0.914062"/><stop stop-opacity="1" stop-color="rgb(80.461121%, 40.615845%, 71.255493%)" offset="0.917969"/><stop stop-opacity="1" stop-color="rgb(81.523132%, 40.582275%, 71.562195%)" offset="0.921875"/><stop stop-opacity="1" stop-color="rgb(82.585144%, 40.548706%, 71.868896%)" offset="0.925781"/><stop stop-opacity="1" stop-color="rgb(83.647156%, 40.515137%, 72.175598%)" offset="0.929687"/><stop stop-opacity="1" stop-color="rgb(84.709167%, 40.481567%, 72.4823%)" offset="0.933594"/><stop stop-opacity="1" stop-color="rgb(85.771179%, 40.447998%, 72.789001%)" offset="0.9375"/><stop stop-opacity="1" stop-color="rgb(86.831665%, 40.414429%, 73.095703%)" offset="0.941406"/><stop stop-opacity="1" stop-color="rgb(87.893677%, 40.380859%, 73.402405%)" offset="0.945312"/><stop stop-opacity="1" stop-color="rgb(88.955688%, 40.34729%, 73.709106%)" offset="0.949219"/><stop stop-opacity="1" stop-color="rgb(90.0177%, 40.313721%, 74.015808%)" offset="0.953125"/><stop stop-opacity="1" stop-color="rgb(91.078186%, 40.280151%, 74.32251%)" offset="0.957031"/><stop stop-opacity="1" stop-color="rgb(92.140198%, 40.248108%, 74.629211%)" offset="0.960938"/><stop stop-opacity="1" stop-color="rgb(93.202209%, 40.214539%, 74.935913%)" offset="0.964844"/><stop stop-opacity="1" stop-color="rgb(94.264221%, 40.180969%, 75.242615%)" offset="0.96875"/><stop stop-opacity="1" stop-color="rgb(95.326233%, 40.1474%, 75.549316%)" offset="0.972656"/><stop stop-opacity="1" stop-color="rgb(96.388245%, 40.113831%, 75.856018%)" offset="0.976562"/><stop stop-opacity="1" stop-color="rgb(97.44873%, 40.080261%, 76.16272%)" offset="0.980469"/><stop stop-opacity="1" stop-color="rgb(98.510742%, 40.046692%, 76.469421%)" offset="0.984375"/><stop stop-opacity="1" stop-color="rgb(99.255371%, 40.022278%, 76.68457%)" offset="0.988281"/><stop stop-opacity="1" stop-color="rgb(100%, 39.99939%, 76.899719%)" offset="0.992188"/><stop stop-opacity="1" stop-color="rgb(100%, 39.99939%, 76.899719%)" offset="1"/></linearGradient></defs><rect x="-144" width="1728" fill="#ffffff" y="-80.999999" height="971.999992" fill-opacity="1"/><rect x="-144" width="1728" fill="#0a1428" y="-80.999999" height="971.999992" fill-opacity="1"/><g clip-path="url(#c5543b6e45)"><g clip-path="url(#0e95d42f2c)"><path fill="url(#0e5faa94c2)" d="M 0 810 L 1440 810 L 1440 0.105469 L 0 0.105469 Z M 0 810 " fill-rule="nonzero"/></g></g></svg>